<svg width="38" height="38" viewBox="0 0 38 38" fill="none" xmlns="http://www.w3.org/2000/svg">
<path d="M3.68125 34.1258C3.68125 34.1258 4.76604 38.2981 11.5532 37.2311L12.7074 34.4375L10.7552 32.316L5.3491 30.533L3.67947 34.1264" fill="#34484C"/>
<path d="M25.3116 26.3031C25.3116 27.7816 24.5486 28.1687 22.6314 28.9809L6.24091 35.8999C5.88905 35.9 5.54063 35.8307 5.21556 35.6961C4.89049 35.5614 4.59514 35.364 4.34639 35.1152C4.09765 34.8663 3.90039 34.5709 3.76588 34.2458C3.63138 33.9206 3.56227 33.5722 3.5625 33.2203V10.1935C3.5625 8.7115 4.43175 8.22047 6.24091 7.51272L22.6314 0.593751C22.9831 0.593517 23.3315 0.662588 23.6565 0.797019C23.9816 0.931449 24.277 1.12861 24.5258 1.37722C24.7747 1.62584 24.9721 1.92105 25.1068 2.24599C25.2415 2.57092 25.3109 2.91921 25.311 3.27097V26.3025" fill="#1EA0CD"/>
<path d="M5.05281 35.6173C5.05281 35.6173 11.1957 37.3807 11.5532 37.2287C11.9124 37.0761 11.3246 34.5646 11.3246 34.5646L9.10278 32.1712L7.03475 32.0762L6.67078 32.5927L5.05222 35.6173" fill="#34484C"/>
<path d="M22.2466 2.18678L4.06482 9.82716L4.91685 14.7214L7.62138 14.9922L16.6547 13.5375L22.271 10.5943L26.4053 4.93288C25.5016 3.31253 24.1757 2.30969 22.2472 2.18678" fill="#F4F5F5"/>
<path d="M8.88131 11.5199C8.88131 11.0924 8.95494 10.7481 9.10278 10.4571C7.24375 10.2849 5.48685 9.74522 4.20256 8.58978C3.77863 8.98047 3.56963 9.46735 3.56963 10.1929V33.2209C3.56939 33.5727 3.63846 33.921 3.77289 34.2461C3.90733 34.5711 4.10448 34.8665 4.3531 35.1153C4.60172 35.3642 4.89693 35.5616 5.22186 35.6963C5.5468 35.831 5.89509 35.9004 6.24685 35.9005L8.8926 34.7837C8.88479 34.7059 8.88083 34.6278 8.88072 34.5497L8.88131 11.5199Z" fill="#34484C"/>
<path d="M31.0959 28.5724C31.0959 30.0538 30.3365 30.4398 28.4169 31.252L11.5556 37.2305C10.8449 37.2303 10.1635 36.948 9.66099 36.4455C9.1585 35.943 8.87613 35.2615 8.87598 34.5509V11.5217C8.87598 10.0421 9.74641 9.54927 11.5556 8.8433L28.4169 2.86424C29.1275 2.8644 29.8089 3.14678 30.3113 3.64929C30.8137 4.15179 31.0959 4.83327 31.0959 5.54384V28.5724Z" fill="#57C6E9"/>
<path d="M24.1146 9.89306C24.1318 9.93754 24.14 9.98497 24.1389 10.0326C24.1377 10.0803 24.1271 10.1273 24.1078 10.1709C24.0884 10.2145 24.0606 10.2538 24.026 10.2866C23.9914 10.3194 23.9507 10.3451 23.9061 10.3621L14.9381 13.8207C14.8938 13.838 14.8465 13.8464 14.799 13.8454C14.7514 13.8444 14.7045 13.834 14.6609 13.8149C14.6174 13.7957 14.578 13.7682 14.5451 13.7339C14.5122 13.6995 14.4863 13.659 14.4691 13.6147C14.4345 13.5247 14.437 13.4246 14.4759 13.3364C14.5149 13.2482 14.5871 13.179 14.6769 13.1438L23.6455 9.68703C23.6898 9.66975 23.7371 9.66137 23.7847 9.66237C23.8322 9.66338 23.8791 9.67374 23.9227 9.69287C23.9663 9.712 24.0056 9.73953 24.0385 9.77388C24.0715 9.80823 24.0973 9.84873 24.1146 9.89306ZM24.1146 11.5425C24.1317 11.5868 24.1398 11.6341 24.1386 11.6816C24.1374 11.729 24.1268 11.7758 24.1074 11.8192C24.088 11.8625 24.0603 11.9017 24.0257 11.9343C23.9912 11.9669 23.9506 11.9923 23.9061 12.0092L14.9381 15.4672C14.8499 15.4957 14.7541 15.4895 14.6704 15.4496C14.5867 15.4097 14.5215 15.3394 14.488 15.2529C14.4546 15.1664 14.4555 15.0704 14.4906 14.9846C14.5258 14.8988 14.5924 14.8297 14.6769 14.7915L23.6455 11.3335C23.7354 11.2992 23.8353 11.302 23.9232 11.3412C24.0111 11.3803 24.0799 11.4527 24.1146 11.5425ZM21.0645 14.421C21.1345 14.6086 21.0906 14.7986 20.9635 14.8485L14.8378 17.2087C14.7113 17.2579 14.5504 17.1481 14.4774 16.9611C14.4061 16.7728 14.4501 16.5811 14.5771 16.5342L20.7017 14.171C20.8305 14.1235 20.9914 14.234 21.0651 14.4204" fill="#198BA9"/>
</svg>
